<?xml version="1.0" standalone="no"?>
<!DOCTYPE svg PUBLIC "-//W3C//DTD SVG 20010904//EN"
 "http://www.w3.org/TR/2001/REC-SVG-20010904/DTD/svg10.dtd">
<svg version="1.0" xmlns="http://www.w3.org/2000/svg"
 width="419.000000pt" height="419.000000pt" viewBox="0 0 419.000000 419.000000"
 preserveAspectRatio="xMidYMid meet">
<metadata>
Created by potrace 1.14, written by Peter Selinger 2001-2017
</metadata>
<g transform="translate(0.000000,419.000000) scale(0.100000,-0.100000)"
fill="#000000" stroke="none">
<path d="M1919 4185 c-2 -1 -29 -6 -59 -9 -130 -14 -253 -41 -390 -83 -47 -15
-87 -27 -90 -28 -3 -1 -18 -7 -33 -13 -16 -7 -31 -12 -33 -12 -3 0 -49 -21
-102 -47 -53 -25 -100 -46 -104 -45 -5 1 -8 -2 -8 -7 0 -5 -8 -11 -17 -15 -40
-13 -178 -103 -279 -182 -78 -60 -236 -211 -299 -284 -163 -190 -302 -432
-389 -678 -14 -40 -28 -82 -31 -95 -2 -12 -11 -45 -19 -74 -8 -29 -17 -65 -20
-80 -3 -15 -7 -39 -10 -53 -38 -196 -43 -551 -11 -710 3 -14 8 -41 11 -60 15
-100 93 -358 135 -444 10 -22 19 -46 19 -53 0 -7 4 -13 8 -13 5 0 16 -18 25
-41 14 -37 142 -257 156 -269 3 -3 26 -32 51 -65 25 -33 52 -68 60 -79 20 -25
209 -215 242 -242 71 -60 160 -126 223 -165 39 -24 79 -50 90 -57 79 -50 363
-174 429 -188 11 -2 40 -10 65 -18 42 -13 63 -18 131 -31 14 -3 39 -8 55 -11
89 -20 200 -29 375 -29 166 0 268 8 365 28 17 4 41 8 55 11 160 27 442 134
625 238 50 29 188 119 195 128 3 3 14 13 26 21 67 46 252 220 325 305 56 65
140 183 188 264 28 47 54 90 58 95 9 11 104 215 108 230 1 6 8 24 14 40 7 17
14 37 16 45 2 8 8 28 14 43 13 34 57 209 65 257 3 19 8 45 10 57 14 66 20 177
20 333 1 204 -8 292 -45 450 -41 179 -92 321 -172 484 -43 88 -154 269 -168
274 -5 2 -9 8 -9 14 0 32 -305 356 -372 396 -15 9 -28 19 -28 23 0 4 -16 17
-35 29 -20 12 -41 28 -48 34 -23 24 -222 140 -313 183 -168 80 -424 159 -574
177 -25 4 -56 9 -70 12 -27 6 -426 15 -431 9z"/>
</g>
</svg>
